<svg width="501.986" height="501.986" xmlns="http://www.w3.org/2000/svg" xml:space="preserve" version="1.1">

 <g>
  <title>Layer 1</title>
  <path stroke="null" id="svg_3" fill="#FBB03B" d="m260.29191,434.64853l-25.89926,-6.31081c-10.04083,-5.96535 -23.03708,9.03465 -33.07791,15l-65.89926,41.31081c-25.28566,15.02309 -60.83916,-22.24173 -56.00996,-54.0617l13.92284,-91.73504c1.91726,-12.63503 -1.78922,-25.52785 -9.91279,-34.4773l-58.97641,-64.96717c-20.45646,-22.53415 -9.16827,-61.79619 19.10225,-66.43814l81.50362,-13.38346c11.22629,-1.84375 30.93133,-5.81192 35.95132,-17.30754l83.79546,-134.6963l15.50009,427.06666z"/>
  <path id="svg_4" d="m374.839,492.172c-8.05,0 -16.139,-1.941 -23.616,-5.872l-85.969,-45.196c-8.931,-4.694 -19.593,-4.693 -28.521,0l-85.969,45.196c-17.189,9.037 -37.628,7.56 -53.338,-3.855c-15.711,-11.415 -23.431,-30.395 -20.149,-49.535l16.419,-95.728c1.705,-9.944 -1.59,-20.084 -8.813,-27.126l-69.551,-67.794c-13.906,-13.555 -18.816,-33.449 -12.815,-51.919c6,-18.469 21.667,-31.677 40.885,-34.469l96.115,-13.967c9.984,-1.451 18.61,-7.718 23.075,-16.765l42.984,-87.096c8.595,-17.414 25.998,-28.232 45.417,-28.232s36.822,10.818 45.417,28.232l0,0l42.984,87.096c4.465,9.047 13.091,15.314 23.075,16.765l96.115,13.967c19.218,2.792 34.885,16 40.885,34.469c6.001,18.469 1.091,38.363 -12.815,51.918l-69.55,67.794c-7.225,7.042 -10.52,17.183 -8.814,27.127l16.419,95.727c3.282,19.14 -4.438,38.121 -20.148,49.535c-8.876,6.451 -19.266,9.728 -29.722,9.728zm-123.846,-74.59c8.096,0 16.188,1.939 23.567,5.819l85.969,45.196c10.559,5.551 22.625,4.679 32.275,-2.333s14.208,-18.217 12.191,-29.974l-16.419,-95.728c-2.817,-16.434 2.628,-33.192 14.567,-44.829l69.549,-67.794c8.543,-8.327 11.442,-20.071 7.756,-31.417c-3.687,-11.345 -12.935,-19.142 -24.739,-20.857l-96.117,-13.967c-16.499,-2.397 -30.754,-12.755 -38.134,-27.706l-42.984,-87.096c-5.279,-10.697 -15.553,-17.083 -27.481,-17.083c-11.929,0 -22.202,6.386 -27.481,17.083l-42.984,87.096c-7.38,14.951 -21.635,25.308 -38.134,27.706l-96.116,13.967c-11.806,1.715 -21.054,9.513 -24.74,20.857c-3.687,11.345 -0.787,23.09 7.756,31.416l69.55,67.794c11.938,11.637 17.384,28.396 14.566,44.829l-16.42,95.73c-2.017,11.757 2.541,22.962 12.191,29.974c9.651,7.012 21.717,7.884 32.275,2.333l85.969,-45.196c7.379,-3.88 15.474,-5.82 23.568,-5.82z"/>
  <g id="svg_5">
   <path id="svg_6" d="m231.978,103.014c-1.486,0 -2.994,-0.333 -4.418,-1.035c-4.952,-2.444 -6.985,-8.44 -4.542,-13.393l8.559,-17.342c2.444,-4.953 8.438,-6.988 13.394,-4.542c4.952,2.444 6.985,8.44 4.542,13.393l-8.559,17.342c-1.743,3.529 -5.29,5.577 -8.976,5.577z"/>
  </g>
  <g id="svg_7">
   <path id="svg_8" d="m145.668,198.093c-4.887,0 -9.16,-3.585 -9.884,-8.563c-0.794,-5.465 2.993,-10.54 8.458,-11.334c23.306,-3.387 43.441,-18.017 53.863,-39.134l9.612,-19.476c2.443,-4.953 8.44,-6.986 13.394,-4.542c4.952,2.444 6.985,8.44 4.542,13.393l-9.612,19.476c-13.337,27.021 -39.102,45.741 -68.922,50.075c-0.487,0.071 -0.972,0.105 -1.451,0.105z"/>
  </g>
 </g>
</svg>