<?xml version="1.0" encoding="iso-8859-1"?>
<!-- Generator: Adobe Illustrator 19.0.0, SVG Export Plug-In . SVG Version: 6.00 Build 0)  -->
<svg version="1.1" id="Layer_1" xmlns="http://www.w3.org/2000/svg" xmlns:xlink="http://www.w3.org/1999/xlink" x="0px" y="0px"
	 viewBox="0 0 512 512" style="enable-background:new 0 0 512 512;" xml:space="preserve">
<polygon style="fill:#FB7E17;" points="421.094,512 452.444,161.112 421.094,0 90.906,0 59.556,161.112 90.906,512 "/>
<polygon style="fill:#FF9845;" points="256,0 90.906,0 59.556,161.112 90.906,512 256,512 "/>
<polygon style="fill:#FB7100;" points="90.906,0 59.556,161.112 452.444,161.112 421.094,0 "/>
<polygon style="fill:#FB7E17;" points="256,0 90.906,0 59.556,161.112 256,161.112 "/>
<path style="fill:#0EC1F4;" d="M147.386,0v53.583c0,27.522,22.311,49.831,49.831,49.831h117.566
	c27.521,0,49.831-22.31,49.831-49.831V0H147.386z"/>
<path style="fill:#9BE7FE;" d="M256,0H147.386v53.583c0,27.522,22.311,49.831,49.831,49.831H256V0z"/>
<g>
</g>
<g>
</g>
<g>
</g>
<g>
</g>
<g>
</g>
<g>
</g>
<g>
</g>
<g>
</g>
<g>
</g>
<g>
</g>
<g>
</g>
<g>
</g>
<g>
</g>
<g>
</g>
<g>
</g>
</svg>
